<svg viewBox="0 0 1513 400" xmlns="http://www.w3.org/2000/svg"><g><g><g><g><g><line x1="62.8125" y1="375" x2="57.8125" y2="375" style="visibility: inherit;" fill="rgb(0, 0, 0)" stroke="rgb(204, 204, 204)" stroke-width="1px"></line><line x1="62.8125" y1="348.2142857142857" x2="57.8125" y2="348.2142857142857" style="visibility: inherit;" fill="rgb(0, 0, 0)" stroke="rgb(204, 204, 204)" stroke-width="1px"></line><line x1="62.8125" y1="321.42857142857144" x2="57.8125" y2="321.42857142857144" style="visibility: inherit;" fill="rgb(0, 0, 0)" stroke="rgb(204, 204, 204)" stroke-width="1px"></line><line x1="62.8125" y1="294.64285714285717" x2="57.8125" y2="294.64285714285717" style="visibility: inherit;" fill="rgb(0, 0, 0)" stroke="rgb(204, 204, 204)" stroke-width="1px"></line><line x1="62.8125" y1="267.8571428571429" x2="57.8125" y2="267.8571428571429" style="visibility: inherit;" fill="rgb(0, 0, 0)" stroke="rgb(204, 204, 204)" stroke-width="1px"></line><line x1="62.8125" y1="241.07142857142858" x2="57.8125" y2="241.07142857142858" style="visibility: inherit;" fill="rgb(0, 0, 0)" stroke="rgb(204, 204, 204)" stroke-width="1px"></line><line x1="62.8125" y1="214.28571428571428" x2="57.8125" y2="214.28571428571428" style="visibility: inherit;" fill="rgb(0, 0, 0)" stroke="rgb(204, 204, 204)" stroke-width="1px"></line><line x1="62.8125" y1="187.5" x2="57.8125" y2="187.5" style="visibility: inherit;" fill="rgb(0, 0, 0)" stroke="rgb(204, 204, 204)" stroke-width="1px"></line><line x1="62.8125" y1="160.71428571428572" x2="57.8125" y2="160.71428571428572" style="visibility: inherit;" fill="rgb(0, 0, 0)" stroke="rgb(204, 204, 204)" stroke-width="1px"></line><line x1="62.8125" y1="133.92857142857144" x2="57.8125" y2="133.92857142857144" style="visibility: inherit;" fill="rgb(0, 0, 0)" stroke="rgb(204, 204, 204)" stroke-width="1px"></line><line x1="62.8125" y1="107.14285714285714" x2="57.8125" y2="107.14285714285714" style="visibility: inherit;" fill="rgb(0, 0, 0)" stroke="rgb(204, 204, 204)" stroke-width="1px"></line><line x1="62.8125" y1="80.35714285714282" x2="57.8125" y2="80.35714285714282" style="visibility: inherit;" fill="rgb(0, 0, 0)" stroke="rgb(204, 204, 204)" stroke-width="1px"></line><line x1="62.8125" y1="53.57142857142863" x2="57.8125" y2="53.57142857142863" style="visibility: inherit;" fill="rgb(0, 0, 0)" stroke="rgb(204, 204, 204)" stroke-width="1px"></line><line x1="62.8125" y1="26.785714285714317" x2="57.8125" y2="26.785714285714317" style="visibility: inherit;" fill="rgb(0, 0, 0)" stroke="rgb(204, 204, 204)" stroke-width="1px"></line><line x1="62.8125" y1="0" x2="57.8125" y2="0" style="visibility: inherit;" fill="rgb(0, 0, 0)" stroke="rgb(204, 204, 204)" stroke-width="1px"></line></g><g transform="translate(52.8125, 0)"><text x="0" y="375" dx="0em" dy="0.3em" style="text-anchor: end; visibility: hidden; font-family: Roboto, sans-serif; font-size: 12px; font-weight: 200;" fill="rgb(255, 255, 255)" stroke="none" stroke-width="1px">0.012</text><text x="0" y="348.2142857142857" dx="0em" dy="0.3em" style="text-anchor: end; visibility: inherit; font-family: Roboto, sans-serif; font-size: 12px; font-weight: 200;" fill="rgb(255, 255, 255)" stroke="none" stroke-width="1px">0.014</text><text x="0" y="321.42857142857144" dx="0em" dy="0.3em" style="text-anchor: end; visibility: inherit; font-family: Roboto, sans-serif; font-size: 12px; font-weight: 200;" fill="rgb(255, 255, 255)" stroke="none" stroke-width="1px">0.016</text><text x="0" y="294.64285714285717" dx="0em" dy="0.3em" style="text-anchor: end; visibility: inherit; font-family: Roboto, sans-serif; font-size: 12px; font-weight: 200;" fill="rgb(255, 255, 255)" stroke="none" stroke-width="1px">0.018</text><text x="0" y="267.8571428571429" dx="0em" dy="0.3em" style="text-anchor: end; visibility: inherit; font-family: Roboto, sans-serif; font-size: 12px; font-weight: 200;" fill="rgb(255, 255, 255)" stroke="none" stroke-width="1px">0.02</text><text x="0" y="241.07142857142858" dx="0em" dy="0.3em" style="text-anchor: end; visibility: inherit; font-family: Roboto, sans-serif; font-size: 12px; font-weight: 200;" fill="rgb(255, 255, 255)" stroke="none" stroke-width="1px">0.022</text><text x="0" y="214.28571428571428" dx="0em" dy="0.3em" style="text-anchor: end; visibility: inherit; font-family: Roboto, sans-serif; font-size: 12px; font-weight: 200;" fill="rgb(255, 255, 255)" stroke="none" stroke-width="1px">0.024</text><text x="0" y="187.5" dx="0em" dy="0.3em" style="text-anchor: end; visibility: inherit; font-family: Roboto, sans-serif; font-size: 12px; font-weight: 200;" fill="rgb(255, 255, 255)" stroke="none" stroke-width="1px">0.026</text><text x="0" y="160.71428571428572" dx="0em" dy="0.3em" style="text-anchor: end; visibility: inherit; font-family: Roboto, sans-serif; font-size: 12px; font-weight: 200;" fill="rgb(255, 255, 255)" stroke="none" stroke-width="1px">0.028</text><text x="0" y="133.92857142857144" dx="0em" dy="0.3em" style="text-anchor: end; visibility: inherit; font-family: Roboto, sans-serif; font-size: 12px; font-weight: 200;" fill="rgb(255, 255, 255)" stroke="none" stroke-width="1px">0.03</text><text x="0" y="107.14285714285714" dx="0em" dy="0.3em" style="text-anchor: end; visibility: inherit; font-family: Roboto, sans-serif; font-size: 12px; font-weight: 200;" fill="rgb(255, 255, 255)" stroke="none" stroke-width="1px">0.032</text><text x="0" y="80.35714285714282" dx="0em" dy="0.3em" style="text-anchor: end; visibility: inherit; font-family: Roboto, sans-serif; font-size: 12px; font-weight: 200;" fill="rgb(255, 255, 255)" stroke="none" stroke-width="1px">0.034</text><text x="0" y="53.57142857142863" dx="0em" dy="0.3em" style="text-anchor: end; visibility: inherit; font-family: Roboto, sans-serif; font-size: 12px; font-weight: 200;" fill="rgb(255, 255, 255)" stroke="none" stroke-width="1px">0.036</text><text x="0" y="26.785714285714317" dx="0em" dy="0.3em" style="text-anchor: end; visibility: inherit; font-family: Roboto, sans-serif; font-size: 12px; font-weight: 200;" fill="rgb(255, 255, 255)" stroke="none" stroke-width="1px">0.038</text><text x="0" y="0" dx="0em" dy="0.3em" style="text-anchor: end; visibility: hidden; font-family: Roboto, sans-serif; font-size: 12px; font-weight: 200;" fill="rgb(255, 255, 255)" stroke="none" stroke-width="1px">0.04</text></g><line x1="62.8125" y1="0" x2="62.8125" y2="375" fill="rgb(0, 0, 0)" stroke="rgb(204, 204, 204)" stroke-width="1px"></line></g></g><g transform="translate(62, 0)" clip-path="url(#clip_0)"><clipPath id="clip_0"><rect width="1450" height="375"></rect></clipPath><g><g><g><line x1="0" y1="0" x2="0" y2="375" fill="rgb(0, 0, 0)" stroke="rgb(189, 189, 189)" stroke-width="1px" opacity="0.25"></line><line x1="120.84895833333333" y1="0" x2="120.84895833333333" y2="375" fill="rgb(0, 0, 0)" stroke="rgb(189, 189, 189)" stroke-width="1px" opacity="0.25"></line><line x1="241.69791666666666" y1="0" x2="241.69791666666666" y2="375" fill="rgb(0, 0, 0)" stroke="rgb(189, 189, 189)" stroke-width="1px" opacity="0.25"></line><line x1="362.546875" y1="0" x2="362.546875" y2="375" fill="rgb(0, 0, 0)" stroke="rgb(189, 189, 189)" stroke-width="1px" opacity="0.25"></line><line x1="483.3958333333333" y1="0" x2="483.3958333333333" y2="375" fill="rgb(0, 0, 0)" stroke="rgb(189, 189, 189)" stroke-width="1px" opacity="0.25"></line><line x1="604.2447916666667" y1="0" x2="604.2447916666667" y2="375" fill="rgb(0, 0, 0)" stroke="rgb(189, 189, 189)" stroke-width="1px" opacity="0.25"></line><line x1="725.09375" y1="0" x2="725.09375" y2="375" fill="rgb(0, 0, 0)" stroke="rgb(189, 189, 189)" stroke-width="1px" opacity="0.25"></line><line x1="845.9427083333334" y1="0" x2="845.9427083333334" y2="375" fill="rgb(0, 0, 0)" stroke="rgb(189, 189, 189)" stroke-width="1px" opacity="0.25"></line><line x1="966.7916666666666" y1="0" x2="966.7916666666666" y2="375" fill="rgb(0, 0, 0)" stroke="rgb(189, 189, 189)" stroke-width="1px" opacity="0.25"></line><line x1="1087.640625" y1="0" x2="1087.640625" y2="375" fill="rgb(0, 0, 0)" stroke="rgb(189, 189, 189)" stroke-width="1px" opacity="0.25"></line><line x1="1208.4895833333335" y1="0" x2="1208.4895833333335" y2="375" fill="rgb(0, 0, 0)" stroke="rgb(189, 189, 189)" stroke-width="1px" opacity="0.25"></line><line x1="1329.3385416666665" y1="0" x2="1329.3385416666665" y2="375" fill="rgb(0, 0, 0)" stroke="rgb(189, 189, 189)" stroke-width="1px" opacity="0.25"></line><line x1="1450.1875" y1="0" x2="1450.1875" y2="375" fill="rgb(0, 0, 0)" stroke="rgb(189, 189, 189)" stroke-width="1px" opacity="0.25"></line></g><g><line x1="0" y1="375" x2="1450.1875" y2="375" fill="rgb(0, 0, 0)" stroke="rgb(189, 189, 189)" stroke-width="1px" opacity="0.25"></line><line x1="0" y1="348.2142857142857" x2="1450.1875" y2="348.2142857142857" fill="rgb(0, 0, 0)" stroke="rgb(189, 189, 189)" stroke-width="1px" opacity="0.25"></line><line x1="0" y1="321.42857142857144" x2="1450.1875" y2="321.42857142857144" fill="rgb(0, 0, 0)" stroke="rgb(189, 189, 189)" stroke-width="1px" opacity="0.25"></line><line x1="0" y1="294.64285714285717" x2="1450.1875" y2="294.64285714285717" fill="rgb(0, 0, 0)" stroke="rgb(189, 189, 189)" stroke-width="1px" opacity="0.25"></line><line x1="0" y1="267.8571428571429" x2="1450.1875" y2="267.8571428571429" fill="rgb(0, 0, 0)" stroke="rgb(189, 189, 189)" stroke-width="1px" opacity="0.25"></line><line x1="0" y1="241.07142857142858" x2="1450.1875" y2="241.07142857142858" fill="rgb(0, 0, 0)" stroke="rgb(189, 189, 189)" stroke-width="1px" opacity="0.25"></line><line x1="0" y1="214.28571428571428" x2="1450.1875" y2="214.28571428571428" fill="rgb(0, 0, 0)" stroke="rgb(189, 189, 189)" stroke-width="1px" opacity="0.25"></line><line x1="0" y1="187.5" x2="1450.1875" y2="187.5" fill="rgb(0, 0, 0)" stroke="rgb(189, 189, 189)" stroke-width="1px" opacity="0.25"></line><line x1="0" y1="160.71428571428572" x2="1450.1875" y2="160.71428571428572" fill="rgb(0, 0, 0)" stroke="rgb(189, 189, 189)" stroke-width="1px" opacity="0.25"></line><line x1="0" y1="133.92857142857144" x2="1450.1875" y2="133.92857142857144" fill="rgb(0, 0, 0)" stroke="rgb(189, 189, 189)" stroke-width="1px" opacity="0.25"></line><line x1="0" y1="107.14285714285714" x2="1450.1875" y2="107.14285714285714" fill="rgb(0, 0, 0)" stroke="rgb(189, 189, 189)" stroke-width="1px" opacity="0.25"></line><line x1="0" y1="80.35714285714282" x2="1450.1875" y2="80.35714285714282" fill="rgb(0, 0, 0)" stroke="rgb(189, 189, 189)" stroke-width="1px" opacity="0.25"></line><line x1="0" y1="53.57142857142863" x2="1450.1875" y2="53.57142857142863" fill="rgb(0, 0, 0)" stroke="rgb(189, 189, 189)" stroke-width="1px" opacity="0.25"></line><line x1="0" y1="26.785714285714317" x2="1450.1875" y2="26.785714285714317" fill="rgb(0, 0, 0)" stroke="rgb(189, 189, 189)" stroke-width="1px" opacity="0.25"></line><line x1="0" y1="0" x2="1450.1875" y2="0" fill="rgb(0, 0, 0)" stroke="rgb(189, 189, 189)" stroke-width="1px" opacity="0.25"></line></g></g></g><g><g><line x1="0" y1="535.7142857142858" x2="1450.1875" y2="535.7142857142858" fill="rgb(0, 0, 0)" stroke="rgb(153, 153, 153)" stroke-width="1.5px"></line></g></g><g><g><line x1="120.84895833333333" y1="0" x2="120.84895833333333" y2="375" fill="rgb(0, 0, 0)" stroke="rgb(153, 153, 153)" stroke-width="1.5px"></line></g></g><g><g><g><g><g><path stroke="rgb(255, 112, 67)" stroke-width="2px" d="M186.30075416666668,-2.636776337449742L186.51828229166665,0.05624001471689344L187.75094166666668,3.2433690014335714L188.161828125,12.009384593721931L189.58784583333335,15.426465506881899L192.70574895833332,18.645290305507338L195.3644260416667,16.284460884368134L195.87199166666667,23.338432733487792L195.89616145833332,26.3774828842408L196.86295312500002,32.239727920788965L198.60317812499997,32.28292378322838L199.183253125,34.88214413235902L199.76332812500002,36.76514396822651L201.96277916666668,52.17941501987619L203.12292916666667,56.321913367428756L205.44322916666667,53.42151996458556L206.07164375,61.23240584661105L207.03843541666666,64.73971453330051L207.86020833333333,63.90773339744434L208.246925,72.8546225969155L209.1653770833333,76.38559870919279L209.50375416666665,82.71746143116596L209.57626354166666,77.43937229600857L210.567225,84.01136130435246L212.2591104166667,85.54957953567389L213.85431666666665,90.23309321619786L215.47369270833335,90.93914473165393L217.8181625,91.8957069633668L218.08403020833333,90.41512878784681L220.16263229166665,97.52715864353259L220.45266979166666,94.16168801332032L221.90285729166666,90.59247603828464L222.168725,98.36220514762044L223.01466770833332,103.85333438115786L225.21411874999998,107.81327259224884L225.45581666666666,110.51418893285522L230.55564270833335,115.69443311708702L231.15988749999997,120.76762715846769L233.21431979166667,122.65862208116498L234.20528125,122.09434616304414L237.63739166666664,123.26081345500454L237.7340708333333,125.10505347955824L238.84588125000002,126.46748770962712L243.60733020833334,129.21484828107478L243.82485833333334,130.54882612195343L243.87319791666667,136.60004521390616L244.88832916666667,135.01006787586903L244.98500833333333,132.60533731628797L245.444234375,135.45777041071665L246.21766770833335,135.3419479769358L246.531875,136.12799932107967L247.13611979166666,139.33658946899905L248.03040208333334,143.73874880681706L248.82800520833334,144.18335657143922L250.44738124999998,147.1921281751564L251.43834270833332,147.3175447652026L252.67100208333332,153.04030481968894L257.81916770833334,154.3222327814734L261.80718333333334,153.48001494029432L262.62895625000004,147.62904650488255L262.94316354166665,151.158685315748L264.8042375,158.99820383233393L265.40848229166664,163.92397528179168L265.79519895833334,163.77668488516372L267.14870729166665,167.79889119423547L268.5505552083333,161.8458969265413L269.2031395833333,161.2827578600482L269.29981875,161.2328838748726L271.3059114583333,159.98101977343148L271.74096770833336,158.43197109192857L272.61108020833336,161.68126161180606L273.89207916666663,165.2381558753091L273.94041875,167.87887463188176L274.52049375,166.6885741624822L274.54466354166664,159.83605791520327L274.66551250000003,160.6738347250398L274.7863614583333,165.16080994960208L279.18526354166664,161.7479442887948L279.62031979166665,166.66423331761203L280.00703645833335,163.34573227441174L280.12788541666663,166.6532328326391L280.3454135416667,162.95845157768446L283.51165625,161.30540964882516L283.99505208333335,166.1460056123224L285.25188125,168.92204572717813L286.21867291666666,173.24065782162205L286.41203125000004,171.1847448218857L288.079746875,168.8903108159565L289.819971875,170.9793222112841L289.9408208333333,176.85064920577076L289.98916041666666,169.87089787585225L291.34266875,171.9249965215434L294.0013458333333,173.88025104746723L295.040646875,176.7243725792603L296.1524572916667,178.74782540026266L297.4817958333333,177.1762729866051L298.5694364583333,179.1460814661454L300.5755291666666,177.5676153422166L301.2522833333333,181.6532500856354L301.3489625,180.34904332305263L301.39730208333333,182.81317147956617L303.161696875,182.99543526814054L304.37018645833336,180.7979821052123L304.63605416666667,188.41532183529958L305.60284583333333,183.18782739534305L307.6089385416667,182.3003186393605L307.6814479166667,183.94768822834288L308.3098625,179.7532415595038L309.2283145833333,182.74728008867152L309.8808989583333,181.17154949783097L310.702671875,184.2294072216943L311.6694635416667,186.1383739800051L313.8689145833333,188.18687124410394L317.15600625,190.6551080191664L321.2407010416667,189.50853443099274L323.80269895833334,187.17167432616742L327.4523375,188.70097536169186L327.59735624999996,190.8087283211768L329.1442229166667,185.42346342293996L330.135184375,186.2588454573375L330.9811270833334,187.41793948785906L331.70622083333336,189.89627075465495L332.382975,193.32975624846028L332.96305,190.14267226159348L333.0113895833333,188.01104425980276L334.0990302083333,189.49490981764737L334.340728125,186.9535019431761L335.2350104166667,190.5525221448055L335.4041989583333,185.02380087420795L339.77893125,192.21866013519696L341.301628125,194.9042211493476L342.05089166666664,189.2300484917634L344.46787083333334,191.44320157593012L345.4104927083333,192.87116770268116L345.70053020833336,191.9781887093846L346.2806052083333,195.4606427947506L347.05403854166667,196.58019005615742L351.38043124999996,195.8646933325077L351.597959375,203.27004712839818L354.5950135416667,198.70093663766727L355.585975,195.16881355859218L356.57693645833336,192.76266432061203L356.60110625,196.54150933904668L357.0361625,200.7754163104849L358.6071989583333,200.80294029392005L359.33229270833334,203.94988183208258L359.98487708333334,203.47812214089822L360.5407822916667,205.25352498109243L361.29004583333335,209.39636853243962L361.31421562500003,212.18090026275357L361.58008333333333,209.02045960581222L361.894290625,206.50293175134482L362.039309375,205.9081096994048L362.37768645833336,206.07710822564343L364.069571875,208.81838734614857L364.72215625,217.63629591053393L365.4714197916667,209.686948567962L365.88230625000006,210.119984899638L367.1633052083333,205.08239681402605L367.57419166666665,207.5954575206067L367.74338020833335,207.53786912628715L370.81294375,210.9911587802641L370.88545312499997,212.14760932748558L370.90962291666665,211.6692261842713L372.0939427083333,204.91196925235903L373.30243229166666,205.2573419030405L373.6166395833333,208.00653312514353L374.655940625,209.17459404044956L375.06682708333335,207.87836302999654L376.10612812500005,206.04403697889273L378.08805104166663,211.07128450922886L378.136390625,213.27792036036104L379.6349177083333,212.61354107724122L379.876615625,211.2507604727903L380.0458041666667,210.8869452508531L387.27257187500004,212.5203355975267L387.3934208333333,211.0555886491073L387.58677916666664,208.63867387346426L388.0218354166667,208.2922999233428L388.9886270833333,208.4885975933805L389.56870208333333,205.27449022719824L389.7137208333333,203.09740714934674L391.8406625,204.71057330965343L391.98568124999997,208.00406049028018L394.7168677083333,199.95798175834207L396.23956458333333,202.20569219327635L396.60211145833335,200.6336775528277L397.423884375,198.64586942680663L405.71412291666667,202.88983416171627L406.51172604166663,202.41039774752613L407.1884802083333,204.30266147815558L407.6718760416667,203.45002791078966L410.20970416666665,203.1976620091397L411.53904270833334,206.94520552542375L412.7233625,208.20837021487284L415.116171875,211.32869269820992L415.2128510416667,213.1868712896485L416.566359375,216.42455540954435L418.18573541666666,215.20960801065607L418.52411250000006,213.68329468898165L419.44256458333336,217.44637518005925L420.50603541666663,216.23874684167092L420.554375,218.85624277097267L421.4486572916667,218.12859266062554L422.39127916666666,216.76331113922006L422.4879583333333,218.42012917882215L424.27652291666664,223.66913228715705L425.412503125,226.7849805689458L427.9986708333334,227.9148864948099L432.663440625,227.28005074603968L432.7601197916667,221.62373376196624L433.7027416666666,224.9419922249952L434.3794958333333,221.33381670126266L434.47617499999996,221.77409527600983L439.6001708333333,223.67185148168286L442.40386666666666,222.702307760985L443.49150729166666,218.20947025749857L444.43412916666665,218.85767122328062L445.1592229166667,218.8012496760224L446.0535052083333,222.4528800666385L447.67288125,226.78776063703455L448.3496354166666,222.19361832702594L448.54299375000005,228.301199797081L450.11403020833336,227.731009870696L450.57325625,231.08171648659115L450.6941052083334,233.68047794227505L454.4404229166667,230.18906121909015L455.57640312499996,230.26440320888926L458.5251177083333,231.83332855048405L458.74264583333337,233.3724999757269L459.37106041666664,230.9003478092398L460.33785208333336,229.3798357125397L463.50409479166666,230.48270138998063L463.76996249999996,234.48755829408825L464.20501875,235.07501919828408L465.46184791666667,239.41382642373222L465.6310364583333,240.733210212481L467.78214791666664,238.7025894229969L467.95133645833334,234.19818536583367L469.01480729166667,231.77259495968693L469.353184375,232.70987684347577L472.15688020833335,232.863019635254L473.1720114583333,231.76248065589357L474.283821875,232.9363583919236L474.8155572916667,230.54268676750192L477.23253645833336,225.94077875140644L479.0211010416666,228.21404354653026L479.79453437499996,226.7419113593173L480.1087416666667,224.4166639144117L481.5830989583333,230.5963641441507L481.9456458333333,230.22881874764815L483.855059375,227.69584068866413L484.9668697916666,224.53258420069898L484.99103958333336,231.63888952258412L485.08771875,232.71114535957284L486.0545104166667,234.0494561430766L486.3928875,232.33444162835858L486.7312645833333,234.78096230430916L487.0938114583333,230.2878953776415L487.8672447916666,228.5105826833504L488.205621875,225.08481904992763L491.46854375,228.34434313835396L492.14529791666666,231.49719830119128L492.3628260416667,229.25758789641043L493.52297604166665,228.18545997577925L494.4172583333333,227.0491046269291L495.23903125000004,228.4848835154476L498.13940625000004,228.72908449528342L498.8161604166666,229.51961669372446L500.60472500000003,227.1835135617131L501.76487499999996,225.7611047603152L502.56247812500004,226.6058929744703L503.2150625,229.65853253735511L504.4960614583333,230.49736848323835L505.68038125000004,233.93802994146878L508.3390583333333,234.59652220701264L509.4025291666667,234.5843965146098L510.39349062499997,234.23836451867882L512.0370364583333,234.84288959975828L512.06120625,233.29935288216876L513.3905447916667,229.8360938040315L515.1307697916667,229.06860616576282L515.9283729166667,232.27163274614202L517.0401833333333,232.62148687341772L517.499409375,238.22193959947154L517.8861260416667,233.7565694013622L525.2337427083334,232.2472511452699L525.3304218750001,234.66559571401135L527.72323125,237.31332141153706L528.4966645833333,234.38539131437238L528.8350416666666,232.1815755688779L528.9075510416667,232.90790087351817L529.4876260416667,237.49795522903474L530.4544177083334,234.85060822566837L533.5723208333334,236.7453715518176L534.6357916666666,236.6341128230837L534.7808104166667,237.3772392872341L534.8049802083334,234.97646266537816L538.092071875,234.64751438974494L538.3337697916667,235.3821785099499L541.2583145833333,233.52212342868495L542.152596875,236.79760743601543L545.343009375,238.3558294392244L547.010725,237.0821339644331L548.3642333333333,235.9054433669705L548.5817614583334,236.74242359940743L549.403534375,236.77541657366388L550.2978166666667,237.61757539884397L553.029003125,237.6662333593189L556.0260572916667,239.04343599216028L558.829753125,240.63181378091346L559.0231114583333,242.24014990593182L559.119790625,241.69194828597438L559.2164697916667,245.77000868203916L560.9083552083333,246.82504737884793L562.5760708333333,242.82331134852967L563.9295791666667,244.55190097855754L565.6939739583333,238.46464703662232L566.2740489583333,240.27349336316055L567.2166708333333,239.61953047922955L567.530878125,241.20035508123487L567.74840625,244.11314826665156L568.5218395833333,245.68818117281566L570.7938,240.96306380976282L571.2288562499999,240.9810213375774L574.2500802083333,240.06017258688007L574.3950989583334,243.25568200621072L574.4676083333334,240.5825632078161L574.7576458333333,239.402940920696L575.1201927083333,236.62381863130472L577.7547,236.94622091658718L579.857471875,238.46211665236197L582.7095072916667,237.4882662975877L582.8061864583333,239.83733957183273L585.1264864583334,240.94366548093882L586.7942020833334,242.93518929020595L587.7851635416666,243.21435410667658L589.1870114583334,239.58452968909202L589.8879354166667,238.69493821140375L590.2263125,242.00999930918027L592.11155625,244.48884680702804L592.184065625,245.7976555476361L593.2717062500001,243.04057002343276L594.9877614583334,242.7528138544696L595.88204375,240.87587540356208L600.4017947916666,237.8752067505294L600.885190625,238.6803819751512L601.7069635416666,239.9855581358797L602.0936802083334,240.92425517572107L602.3595479166667,243.37619276709452L603.8097354166666,246.56005289971017L603.9064145833333,244.51259749943173L604.220621875,252.5267750634952L604.58316875,254.191446868412L611.761596875,256.8786560948729L612.99425625,254.25068932515785L613.7676895833333,252.19679545811394L613.9852177083334,251.230263183132L614.44444375,252.71812713689368L614.8795,250.92973694464737L616.1604989583334,253.53016758997208L618.2149312500001,254.1560358757871L618.287440625,251.91635305516542L619.1817229166667,255.47684894782137L619.8584770833334,258.18683116032696L620.2935333333334,260.79352764626617L620.3418729166667,263.5756941207103L622.6138333333333,262.8454954263705L624.5715864583333,259.3016527727916L627.133584375,256.16133049477804L627.2302635416667,254.59145915896661L627.64115,253.7368763512816L627.7619989583334,256.363489200155L627.9070177083333,255.1449438130794L628.4145833333333,254.82794339870884L629.2846958333333,256.0775296422035L629.6714125,258.7303124624212L631.5324864583333,259.88802041174125L634.0461447916666,258.1590559176942L634.8679177083334,260.07261544265634L635.9313885416667,260.54679025539303L637.8408020833334,260.11870205026094L638.5417260416667,260.31168105825253L642.4814020833334,259.84426403638594L642.7472697916667,260.81916318116464L642.86811875,261.39397552960276L643.4240239583334,260.32170972031327L644.7533625,262.00386539703385L644.8017020833333,259.6276738138666L648.0404541666667,256.0274357706016L648.8380572916667,263.04577974220643L654.107071875,261.2392898214714L654.687146875,260.30673158056493L656.1131645833334,261.95671204642866L656.49988125,261.96691268064643L658.1192572916666,259.94402318045064L659.472765625,261.5047163957555L660.0045010416667,261.8035757842232L661.72055625,260.93344711419604L661.7688958333333,260.9143745798985L662.6631781250001,262.5944767735333L669.55156875,262.3906445098347L670.8567375,260.93691666708025L671.4609822916667,256.26436086288095L674.844753125,253.76166934701862L678.470221875,253.52312743868922L679.0261270833333,254.62480798152214L679.3161645833333,256.8866473334562L683.9567645833333,257.7525035013799L684.7301979166667,257.9415209010405L686.5671020833333,260.2942292403993L686.591271875,256.1901423432864L688.8390625,257.4043128036062L690.9901739583333,257.9456271995529L691.0385135416666,257.8402091968975L692.3436822916666,257.8588876062377L692.4161916666667,257.08353504631003L702.61584375,255.8709167947071L710.0601395833334,254.8447002957204L712.259590625,255.15100914744764L712.3562697916667,258.6323537061065L712.8154958333333,258.95740867088915L715.5708520833333,259.63352217223684L717.9394916666666,261.12715588006245L718.27786875,265.5766253054959L719.2446604166666,266.6867368755279L720.9365458333333,266.43271116560555L721.2990927083333,268.5204206897111L722.0725260416667,268.7154378098137L722.2417145833333,269.762926188652L723.5952229166667,273.08903121118226L724.07861875,271.4897860604168L724.1269583333334,272.0093248261932L724.876221875,273.21714350077144L726.3747489583334,272.5123164361076L727.8007666666667,272.76918909908926L729.6135010416666,271.47515862831966L731.1120281249999,267.08620011710093L734.7133270833334,268.28670017951316L735.8251375,270.0823390182993L736.3810427083333,269.78008991902766L740.7799447916667,268.2447321453288L742.0851135416667,268.98888497667855L742.3268114583334,268.7135724475848L742.3751510416666,267.4148679990166L743.3902822916667,268.2630246602798L744.7679604166666,270.53000360426506L747.2574489583333,270.9875843387606L747.5474864583333,271.1347437338724L751.6080114583333,270.5597569507621L751.8255395833332,270.64943311661244L752.0188979166666,272.5868781664309L752.2122562500001,270.7556956084833L752.9615197916667,272.41161843737825L755.620196875,273.49688363267745L756.27278125,277.2807985984451L756.5869885416668,277.80493011714935L756.6353281250001,277.32349322338115L758.375553125,279.6913123839619L759.4390239583332,280.4933798533796L762.5569270833334,280.50699474582336L763.451209375,277.9259063023643L763.5720583333333,277.0074036925265L764.8772270833333,281.71239261698923L766.0132072916666,281.25630366845087L767.4633947916667,279.30997200631384L768.961921875,280.1372396234846L768.9860916666667,282.42938271453477L771.3547312500001,279.3461039968682L772.7082395833334,281.299149519192L773.7717104166666,280.6100227532903L774.1342572916667,280.12210127027527L774.8593510416666,282.1024481960061L775.9469916666667,282.1468564975778L776.4062177083333,283.95199893413303L776.8171041666666,278.2436236034937L780.8776291666667,278.02792811833973L782.303646875,281.15519548384816L784.1163812499999,281.4703988089794L784.1888906249999,280.0361816164649L784.4064187500001,278.1591512811512L786.0257947916667,279.4661414683857L786.4125114583334,281.5970447439586L788.5636229166666,280.59671536693435L789.1678677083333,286.08487547783454L792.5758083333333,284.8195477236566L793.3734114583334,287.00322863283196L793.5667697916667,287.0148223227862L795.0411270833333,287.7147283636075L797.74814375,288.1607499755369L798.6907656249999,287.9615881233408L800.0684437499999,286.13797105546524L802.5095927083333,287.78785646995385L802.96881875,286.6937541156789L806.3767593750001,289.17897356178884L808.5278708333333,290.8867512638499L808.7212291666666,288.92714849312773L810.0505677083333,291.98057994585383L811.742453125,291.6687185979384L812.467546875,288.77131847079363L812.7817541666667,288.113851854791L816.7456000000001,285.71149169279295L816.7939395833333,286.01132943048583L818.2441270833334,285.2071754610114L818.92088125,285.09963475360627L821.0961625000001,283.32761988912875L821.1445020833334,283.63543819669684L821.3862,286.5225839593774L824.649121875,288.3338070455305L824.8183104166666,286.1558902899196L828.0328927083333,287.1311660224094L829.2655520833333,286.6847951825022L830.304853125,289.88291843519437L831.5375125,290.5086912671025L832.190096875,291.1603995188405L833.6161145833333,293.8953975764735L835.4288489583332,292.87400785711975L836.7581875,292.70149462353834L837.1449041666667,291.40115675801087L837.990846875,288.0821415901299L838.135865625,285.28277164567703L840.7220333333333,288.0823130342176L840.8912218749999,289.7814586118693L841.3021083333333,289.2090988366958L841.8580135416667,289.90916742128246L842.2689,291.40577798462243L842.8973145833334,292.57834315369405L845.0484260416666,295.26306774965286L845.3142937499999,292.8012819436272L845.9185385416667,291.54417407831266L847.2720468750001,292.71584943415263L847.562084375,290.06033207909354L847.8762916666667,289.4696480319273L850.7766666666666,288.7452366102109L851.8159677083333,289.0114726629771L852.0818354166666,291.60973590582125L852.130175,288.76081012650593L852.2268541666667,287.41209559428177L853.1936458333334,284.5366251009976L853.9912489583334,283.4357387776032L854.3779656249999,282.6395740258926L860.7829604166667,282.9557302883444L862.6198645833333,284.1214539760991L862.934071875,284.9329351570565L864.094221875,286.71901341841806L867.5021624999999,285.5243433018171L868.154746875,284.006468413678L868.9765197916666,288.5521486484966L869.1215385416667,289.0214819339087L869.314896875,291.6290205187622L870.2575187499999,289.7776682552133L872.9645354166666,288.27717712981587L875.2123260416668,289.0024226703269L876.0099291666667,292.8596469510894L877.7018145833333,293.02357611311464L879.2003416666666,292.4135213704056L880.0221145833333,291.4537761528321L881.4481322916666,290.32309135119783L884.7835635416666,290.7942183292717L885.3152989583334,291.60844292362384L886.0645625,292.75864225635837L886.9346750000001,293.21338196314724L887.0313541666667,293.76616052463584L887.2247125,296.38005700436497L888.747409375,295.5252839691791L891.3577468750001,297.8655941632373L891.9136520833333,295.1416014171984L892.30036875,292.0615722081627L892.6387458333334,295.2957996586933L893.1463114583333,295.8680341576532L893.7022166666666,294.99092235102324L894.1372729166667,297.2179182433056L894.62066875,299.19679422693815L898.4636656250001,295.7177230962821L899.3096083333334,299.827852745387L900.42141875,297.9838108786741L906.5363760416667,296.9786662856202L906.874753125,298.768967186277L908.034903125,300.7099752710967L909.1708833333333,301.08320841943106L912.31295625,299.7954493634815L913.8839927083333,300.7224045663731L913.9081625,304.5539950779961L914.1981999999999,304.9881737652808L914.2223697916666,304.31213703313995L916.08344375,306.6851741894607L917.6303104166667,307.2995405346552L918.11370625,310.5562468059166L918.7421208333333,311.42548955376594L922.9234947916666,311.7239629419579L923.8902864583333,316.2930862988275L925.1954552083333,316.7031503497358L927.9508114583334,315.45867170836186L928.3133583333333,314.89703611173854L928.4342072916667,314.7788403408777L928.7484145833333,313.59704107193835L929.1109614583333,313.797687176407L935.3951072916667,307.14820730165593L935.588465625,309.066504740441L936.5794270833334,306.5437534454105L937.8604260416668,309.3895322528367L938.5130104166667,311.19653537225815L939.2139343749999,312.97478863808186L939.3347833333335,314.1067346675984L939.3831229166667,315.7331059740581L939.8665187500001,317.20979180178125L943.129440625,316.5085225555558L944.7729864583333,315.97177185465034L945.2080427083334,315.387537607146L947.3833239583333,318.0017490206865L949.2927374999999,315.53873962197713L949.4135864583333,314.73521640191103L951.4196791666667,319.36986193948485L953.8366583333333,320.68266915925216L954.1025260416667,321.5533846282868L954.6826010416667,322.69606361214784L957.6796552083333,322.35311071802727L960.531690625,321.4343986597669L962.2235760416667,320.7926180352089L963.8187822916666,326.3511805859554L964.592215625,325.40567983888576L965.1239510416666,325.561863084255L965.2931395833333,327.2846396810123L965.5106677083332,331.2150922814416L965.5590072916666,331.7703412788508L965.6073468750001,332.5674066411121L965.9940635416667,332.03514724978857L967.2750625000001,330.61710345739425L967.9034770833333,326.1395834933219L968.6044010416667,326.29724656689143L969.5470229166666,324.51234693169664L970.1754375,326.39394107501107L970.973040625,327.9263868063773L972.0365114583334,328.71916074011665L975.903678125,325.6843781709685L978.00645,326.7132484959876L978.3206572916666,327.50499452690855L979.5049770833333,325.96827697806793L980.1092218749999,327.6369223676461L980.7859760416667,330.8059848449269L981.0035041666666,331.8752096323527L982.139484375,332.1963221286553L983.8072,333.5137333369891L985.2573875,330.75796348185605L987.3118197916666,329.7467175862651L987.9160645833334,328.0482236155682L988.8586864583333,330.91282255121286L989.7046291666667,331.38508095448697L990.9614583333333,330.0119656316707L991.1548166666666,332.92194930924285L994.39356875,329.8529225435646L995.4570395833333,328.7885668071205L997.2939437499999,328.98187877893037L997.511471875,328.66687070599113L1003.0705239583333,329.6168715366199L1003.7231083333334,331.37807005000946L1005.3666541666668,331.0627548052166L1005.7533708333333,330.87208048446604L1006.2125968749999,333.0899083953469L1007.5419354166667,334.09989226757887L1007.73529375,336.7906083344192L1008.60540625,336.1885423225829L1011.8441583333333,337.0368360662887L1012.37589375,336.3093544293174L1012.4242333333334,332.62724852608875L1012.4967427083334,334.5568351334224L1012.7867802083333,334.7530044775028L1013.1251572916667,333.8022723407573L1013.608553125,334.1154278955331L1013.7294020833333,331.21196536836703L1013.8019114583333,331.60697724806795L1015.0345708333333,330.7909179151229L1016.7022864583332,331.9152442802501L1017.0406635416667,334.1530741027348L1017.9349458333332,333.39862453179865L1019.2884541666666,336.18239196709146L1019.5301520833333,334.56341842418203L1020.0618875,336.247682792283L1024.0015635416667,334.5192720097221L1027.16780625,334.1185965965347L1027.820390625,333.8863454970938L1027.8687302083333,334.05833450948626L1029.0047104166667,334.5359096989803L1029.8989927083335,336.09372604051737L1030.7691052083333,336.5262636905568L1031.4216895833333,335.5378615981327L1033.2344239583333,337.1978301171026L1034.5395927083334,340.4035746329119L1034.6604416666667,339.75673401776896L1037.7783447916668,338.3532320116788L1038.841815625,337.8653473625579L1043.554925,337.91965218342386L1048.63058125,339.7010149145109L1048.6547510416667,342.4690760150287L1048.993128125,341.4569193742279L1049.1623166666668,341.31536810379623L1051.0717302083333,340.15385811837916L1051.8209937499998,336.6835817511274L1052.908634375,336.2718702806607L1058.7577239583334,340.5569639206646L1059.5794968750001,340.1307083604L1060.5704583333334,337.808400948024L1061.0055145833335,337.38256967944557L1061.2713822916667,335.793083381682L1064.0750781250001,336.9101499977849L1064.5584739583333,338.0426664966124L1065.4044166666667,336.12968409004L1068.4014708333334,335.3920166520443L1069.1990739583332,335.6796707714211L1069.22324375,333.91815721579695L1073.1145802083333,334.71559442797553L1074.371409375,335.9011255204565L1074.9998239583333,337.8654584225304L1076.7883885416668,336.7665632234838L1077.6826708333333,338.88528685835576L1077.996878125,342.60118430765374L1080.2688385416666,341.9730488984192L1080.679725,339.53153238020144L1080.9214229166666,339.24968249050414L1080.9939322916666,335.87634848752856L1083.072534375,335.0493494291628L1085.392834375,336.20144262672954L1086.407965625,336.97887700987224L1087.5197760416668,338.2257353311948L1087.713134375,339.92763178398263L1088.3657187499998,340.6645753433418L1088.8491145833334,342.4016188291971L1090.2993020833333,342.3752810694515L1091.84616875,344.4386707071683L1091.8703385416668,342.7575488186227L1092.3295645833332,341.5086190354941L1093.3205260416667,343.24900540205397L1093.3446958333334,343.6772805751294L1093.658903125,342.7860739563712L1094.529015625,342.97388107325503L1095.5199770833333,341.6200073443004L1095.6649958333333,341.8595703471102L1096.5351083333333,344.8731889056649L1097.6952583333334,342.60779690135513L1100.25725625,347.68183813341517L1100.6923125,343.2098669820629L1101.9733114583335,343.0742287275647L1102.5533864583333,346.0887220168492L1106.8072697916666,346.59502781934157L1107.000628125,343.646509744815L1108.160778125,344.67739322968583L1108.9825510416667,348.9329207130639L1109.901003125,349.2776837537266L1110.40856875,348.12689713009746L1112.1246239583334,345.6279313304449L1112.8497177083334,345.866307809415L1113.5023020833335,347.24826346373567L1113.5748114583334,340.8601197633208L1113.671490625,342.0191069273255L1115.0008291666668,341.0674183219319L1115.0249989583333,344.7010002039739L1118.167071875,344.78256510532776L1118.8438260416667,345.2447726601576L1120.0764854166666,343.89010272179974L1120.8499187500001,344.0433887604775L1123.242728125,342.7146563566232L1124.4753875,343.95763795802475L1124.6204062499999,344.8033038417939L1124.7654249999998,344.10921348331607L1124.8862739583333,342.97222207767993L1125.49051875,343.6090896537229L1125.6597072916666,343.7455811701741L1126.0222541666667,342.23930218087196L1126.07059375,343.04727318306203L1126.5539895833333,341.2307763140986L1127.6174604166665,339.3679086239869L1127.9558375000001,339.8459777209058L1130.4694958333332,340.3720012177842L1133.8532666666667,337.4880480959715L1134.6508697916665,338.98460175543636L1135.0134166666667,341.892505543697L1135.206775,340.32892486822857L1136.2702458333333,340.70448162605265L1137.2128677083333,342.02439372221363L1137.2370375,338.5369009023418L1138.1554895833333,338.4987479506615L1138.83224375,339.4254508894262L1139.0739416666665,343.1711051779676L1139.1464510416665,346.34316730398507L1144.8021822916667,347.1649702403511L1144.8746916666666,343.761491001177L1146.37321875,344.07425987041313L1147.1224822916668,342.86099936932976L1148.911046875,344.072955360258L1152.8748927083334,345.2713809167945L1153.406628125,345.4608965458956L1154.5426083333334,344.10448429351646L1156.4278520833334,343.64092670524803L1156.6453802083333,342.5713138757517L1156.9837572916665,343.84791131871157L1157.4188135416666,344.16024322106165L1157.7330208333333,340.4234320572677L1158.9656802083334,343.53077473166644L1159.497415625,343.35431577039753L1163.48543125,343.4227397145561L1164.64558125,345.608769670581L1164.8147697916668,346.8416182533291L1165.733221875,349.7942054319629L1165.80573125,350.6820942052536L1167.3042583333333,349.88472564581366L1169.2378416666668,351.331241600524L1172.0415375,350.45857265315834L1172.331575,351.13402671352037L1173.5400645833333,348.18007742692697L1174.4101770833333,347.22801129836006L1174.9177427083334,347.4075165677141L1178.494871875,346.82024341493434L1178.9299281249998,347.2815805645167L1181.4194166666666,347.968385941194L1182.1928500000001,348.3921584830567L1187.9452604166668,344.6993145746473L1188.6703541666666,342.65691108994224L1190.4830885416666,345.9371004032139L1190.5555979166666,344.72378190653365L1191.1598427083334,346.8178502327194L1192.7550489583334,347.1723178697752L1193.0934260416666,346.7739659293969L1194.301915625,348.7500143732117L1194.8819906249998,349.665547786421L1195.5104052083334,352.2409827754297L1195.7279333333333,352.6805336477917L1195.9454614583333,351.28215955905955L1196.0179708333333,351.2378341401184L1196.9364229166667,350.4239034942285L1199.4017416666666,348.8931330986591L1200.3443635416666,350.1018119418265L1201.5045135416667,349.5330089182626L1201.8187208333334,349.56480010378255L1201.9637395833333,351.6672491913267L1201.987909375,351.5503367072714L1202.5196447916667,350.0012435877276L1202.7130031250001,349.81660645898455L1204.018171875,350.5284248407961L1207.28109375,354.2784241479555L1207.9095083333332,355.22823418535893L1208.8279604166667,354.09620987083684L1209.5772239583332,353.743699691762L1210.0606197916668,353.7675925342855L1210.6648645833334,354.6460174972221L1211.9700333333333,353.84893234429734L1213.3477114583334,353.64377511108023L1214.459521875,347.6456825584708L1217.794953125,349.99458182457323L1218.810084375,349.02799001085776L1221.2995729166666,347.2298727981889L1222.2905343749999,348.1590265967499L1222.5564020833333,352.007461082769L1223.0397979166667,353.17244335396975L1223.1364770833334,354.2911103700285L1223.4265145833333,353.6362217174328L1226.7861156249999,352.8847002107119L1227.8979260416668,354.02162995553454L1231.7650927083334,353.8554193145006L1232.0551302083334,352.9450969117119L1232.6835447916667,354.70438639467557L1239.2818979166668,351.97501512881735L1243.318253125,355.2550458357565L1244.5509124999999,354.59840347395516L1244.84095,356.0675180384084L1247.4029479166666,354.47230438169566L1250.1099645833333,352.4727155773763L1253.7837729166667,350.82275967632506L1254.1704895833334,348.76719535556583L1254.629715625,347.07019348929174L1254.6538854166665,347.70861859083294L1257.1192041666666,350.6266925763519L1257.240053125,352.2566777100008L1257.6026,354.2131579046767L1257.675109375,356.37572562821435L1257.9409770833333,356.1685741425234L1258.3518635416667,354.10123492858116L1258.4485427083334,351.03460299929606L1258.835259375,350.3742980336905L1259.19780625,352.3092294481471L1259.5361833333334,352.0724888549909L1260.5029749999999,351.1460226627329L1260.6721635416666,349.78671034560637L1261.1313895833334,350.6813081990307L1263.9834250000001,352.231873521925L1264.1767833333333,352.7239166497381L1264.2251229166668,353.8234093272908L1264.6601791666667,354.32348681043754L1265.2402541666665,353.96192976806856L1267.9231010416665,354.0224053157984L1270.0258729166667,352.13778447863825L1271.596909375,352.23975923074687L1271.9352864583334,348.76762387640383L1273.9172093749999,349.24000756229873L1275.6090947916666,347.8131936468068L1278.7753375,350.5448375160202L1279.6696197916667,349.6941395513712L1280.9747885416666,349.0971546339801L1283.923503125,346.7229665860273L1285.5670489583333,346.0383159920564L1285.7845770833335,348.28155267668814L1285.953765625,348.11173786381056L1286.968896875,348.0235689917981L1287.0897458333332,348.0994005467672L1289.4100458333332,344.8780110032078L1290.159309375,346.0612639998159L1290.304328125,346.1230003635933L1291.24695,345.62999773046886L1293.3255520833334,346.8120405458799L1295.7908708333332,347.14040599800984L1296.3467760416668,347.86527672036175L1296.4434552083333,348.72639479319383L1297.120209375,347.68510302322767L1297.7727937500001,349.6551955603517L1297.8211333333334,350.5690229560634L1298.3286989583332,350.099194531876L1298.8846041666668,353.77654736524244L1301.3740927083334,354.8496009932229L1307.416540625,354.1180689777255L1307.706578125,353.9082578859997L1308.1658041666667,359.02322502001795L1309.1567656250002,357.3656820407498L1310.026878125,358.8475336225119L1311.6462541666667,357.0155940299902L1312.7580645833334,354.0168646755922L1313.3864791666665,354.338067401934L1313.8940447916666,355.22636818612875L1316.842759375,357.0634021977845L1317.9062302083335,356.0543497267969L1321.8700760416666,354.6797049902738L1322.13594375,353.9829579200102L1323.3444333333332,357.88581971066935L1325.7855822916667,355.8425050275031L1326.05145,355.07138569500216L1328.3959197916668,353.170155193901L1328.734296875,352.2516519982848L1329.0726739583333,351.8831305639188L1329.5077302083332,351.8545764407765L1329.5802395833332,350.4026241011236L1330.1603145833333,351.5966832516082L1330.7645593749999,350.79769613517266L1333.4715760416666,350.73046595309313L1335.3084802083333,351.92897242551436L1335.6468572916667,349.61829124586313L1337.1212145833333,351.93414858266624L1339.53819375,353.59183083965337L1339.97325,350.5556418944616L1341.5442864583333,352.89601638453314L1343.7920770833332,354.52148339406745L1343.9129260416667,352.2995874051608L1344.2754729166668,353.6103856743773L1344.7830385416667,351.38816448442486" style="fill: none;" fill="none"></path></g></g></g></g><g opacity="0.2"><g><g><g><path stroke="rgb(255, 112, 67)" stroke-width="2px" d="M177.865496875,-40.82210162388422L179.72657083333334,19.04738800866264L179.84741979166665,-22.90548424103428L180.35498541666666,27.374010533094406L180.42749479166665,47.88602436227458L181.34594687499998,-32.41615037300755L183.13451145833332,24.829154967197358L184.536359375,79.22920331891095L184.7297177083333,54.682799881058095L185.72067916666666,25.820614370916594L185.93820729166669,23.70597994221109L186.30075416666668,-0.6848593641604339L186.51828229166665,15.31215251556467L187.75094166666668,21.299226209521294L188.161828125,61.67285809559482L189.58784583333335,34.786406904459L192.70574895833332,36.88248140471322L195.3644260416667,2.9081831287060407L195.87199166666667,63.30648104527169L195.89616145833332,43.59713422932797L196.86295312500002,65.45643920877151L198.60317812499997,32.527683568852304L199.183253125,49.61020180157255L199.76332812500002,47.434948251715724L201.96277916666668,139.52327626092094L203.12292916666667,79.79523124439376L205.44322916666667,36.98645691786496L206.07164375,105.49294895359449L207.03843541666666,84.61402729153633L207.86020833333333,59.193261632961914L208.246925,123.55285696685314L209.1653770833333,96.39419349176544L209.50375416666665,118.59760553176915L209.57626354166666,47.530491969415124L210.567225,121.25232389995031L212.2591104166667,94.26608814724855L213.85431666666665,116.77284525441272L215.47369270833335,94.9400829683457L217.8181625,97.31620284063476L218.08403020833333,82.02521662626951L220.16263229166665,137.82853526728493L220.45266979166666,75.09073841252498L221.90285729166666,70.36698716027396L222.168725,142.39058563751834L223.01466770833332,134.96968263228024L225.21411874999998,130.25289135319846L225.45581666666666,125.81936349826199L230.55564270833335,145.0491207651794L231.15988749999997,149.51570225613457L233.21431979166667,133.37425222354275L234.20528125,118.89678459348423L237.63739166666664,129.87079132082206L237.7340708333333,135.55574230849743L238.84588125000002,134.18794543083226L243.60733020833334,144.78321985474656L243.82485833333334,138.10803182423115L243.87319791666667,170.89027878163117L244.88832916666667,126.00019806995988L244.98500833333333,118.97853309554714L245.444234375,151.62155564342225L246.21766770833335,134.6856209316424L246.531875,140.5822898128203L247.13611979166666,157.51859871670604L248.03040208333334,168.68431653295244L248.82800520833334,146.702800411731L250.44738124999998,164.24183301361543L251.43834270833332,148.02823874301146L252.67100208333332,185.46927720308304L257.81916770833334,161.5864909919245L261.80718333333334,148.70744730745042L262.62895625000004,114.47355949452948L262.94316354166665,171.15997150540352L264.8042375,203.42214132792185L265.40848229166664,191.83667975344827L265.79519895833334,162.94203931465745L267.14870729166665,190.59139337124572L268.5505552083333,128.11226304620504L269.2031395833333,158.09163650763887L269.29981875,160.95026462738002L271.3059114583333,152.88712323776315L271.74096770833336,149.65402860460537L272.61108020833336,180.09390781766604L273.89207916666663,185.39388996681998L273.94041875,182.8429475426674L274.52049375,159.94353818574123L274.54466354166664,121.00513259481107L274.66551250000003,165.4212366390441L274.7863614583333,190.5870028505368L279.18526354166664,142.40837223561746L279.62031979166665,194.5232044506286L280.00703645833335,144.54089304698365L280.12788541666663,185.39573598120893L280.3454135416667,142.02135781358396L283.51165625,151.938172057271L283.99505208333335,193.57604939224467L285.25188125,184.65293970491206L286.21867291666666,197.7127930149436L286.41203125000004,159.5345711601632L288.079746875,155.88851811896478L289.819971875,182.81705344894104L289.9408208333333,210.12150216847658L289.98916041666666,130.3189736790955L291.34266875,183.564888845597L294.0013458333333,184.96002669313125L295.040646875,192.84106125789032L296.1524572916667,190.21405805168408L297.4817958333333,168.27080930982316L298.5694364583333,190.30832951622352L300.5755291666666,168.62297397372978L301.2522833333333,204.80518029736623L301.3489625,172.9585383353489L301.39730208333333,196.77656436605113L303.161696875,184.02826340336884L304.37018645833336,168.3457475155592L304.63605416666667,231.58024697165405L305.60284583333333,153.56535890272687L307.6089385416667,177.27110235552703L307.6814479166667,193.28278256580234L308.3098625,155.98471043631434L309.2283145833333,199.7134984204812L309.8808989583333,172.2424094831305L310.702671875,201.5572676568159L311.6694635416667,196.95585227704476L313.8689145833333,199.79502240728056L317.15600625,204.64178307780196L321.2407010416667,183.01128409802914L323.80269895833334,173.9294670655259L327.4523375,197.3670145629772L327.59735624999996,202.75266175823555L329.1442229166667,154.90696233298098L330.135184375,190.99267698558316L330.9811270833334,193.98613899414028L331.70622083333336,203.94014793315102L332.382975,212.78617404667395L332.96305,172.08252966936146L333.0113895833333,175.93181891632932L334.0990302083333,197.90348131209612L334.340728125,172.55219065451197L335.2350104166667,210.94696995403086L335.4041989583333,153.69438034083163L339.77893125,232.98952928079026L341.301628125,210.12240022953068L342.05089166666664,157.07640343212657L344.46787083333334,203.98440238620555L345.4104927083333,200.96297575426954L345.70053020833336,186.91797441403781L346.2806052083333,215.1945492784892L347.05403854166667,202.92429120412896L351.38043124999996,191.81021189849292L351.597959375,245.23371863844142L354.5950135416667,172.80931052352702L355.585975,175.15344944383418L356.57693645833336,179.12781863872493L356.60110625,217.95496444350908L357.0361625,224.7675558153008L358.6071989583333,200.95890953338574L359.33229270833334,221.78255054833636L359.98487708333334,200.8048172241875L360.5407822916667,215.31414107552598L361.29004583333335,232.87248199007342L361.31421562500003,227.95991340119923L361.58008333333333,191.11129588314463L361.894290625,192.23694057602967L362.039309375,202.53745140507817L362.37768645833336,207.0347665409957L364.069571875,224.35230236234412L364.72215625,267.6044444420508L365.4714197916667,164.64064696005414L365.88230625000006,212.573857445802L367.1633052083333,176.53606432889188L367.57419166666665,221.83613485789726L367.74338020833335,207.21153489180972L370.81294375,230.55980015279994L370.88545312499997,218.7008290950741L370.90962291666665,208.95838837272356L372.0939427083333,166.6208466381899L373.30243229166666,207.21445359023556L373.6166395833333,223.58528338372707L374.655940625,215.79360589385033L375.06682708333335,200.53305397076267L376.10612812500005,195.6495226893042L378.08805104166663,239.55902051446694L378.136390625,225.78219018344367L379.6349177083333,208.8487251395626L379.876615625,203.5283370475684L380.0458041666667,208.82532565987538L387.27257187500004,221.7762142286769L387.3934208333333,202.7553559413978L387.58677916666664,194.9428234781538L388.0218354166667,206.32951420598795L388.9886270833333,209.60095105692744L389.56870208333333,187.06121515216572L389.7137208333333,190.76060304152116L391.8406625,213.85184821805785L391.98568124999997,226.66715451383163L394.7168677083333,154.36353561069285L396.23956458333333,214.94271799123715L396.60211145833335,191.725594590285L397.423884375,187.38162337935398L405.71412291666667,226.9389676595373L406.51172604166663,199.69359140044878L407.1884802083333,215.0254892850561L407.6718760416667,198.61843769571612L410.20970416666665,201.76758856645654L411.53904270833334,228.1812854510333L412.7233625,215.36630345508456L415.116171875,229.0105201037867L415.2128510416667,223.71654997446706L416.566359375,234.7714320889541L418.18573541666666,208.32490608362215L418.52411250000006,205.03418586616004L419.44256458333336,238.77049796283245L420.50603541666663,209.39551959080356L420.554375,233.68871970368284L421.4486572916667,214.00524203532507L422.39127916666666,209.02671585125583L422.4879583333333,227.80876473656724L424.27652291666664,253.41348323438848L425.412503125,244.4414541657482L427.9986708333334,234.3176867413734L432.663440625,223.68264816967505L432.7601197916667,189.57127085221666L433.7027416666666,243.7454568488257L434.3794958333333,200.8874887334449L434.47617499999996,224.26900719957695L439.6001708333333,234.42580331383007L442.40386666666666,217.20822667703032L443.49150729166666,192.75005773774217L444.43412916666665,222.53081002937898L445.1592229166667,218.48152757489254L446.0535052083333,243.1454522801297L447.67288125,251.35208386927843L448.3496354166666,196.1601452369775L448.54299375000005,262.91082812739273L450.11403020833336,224.4999336211809L450.57325625,250.06905397666353L450.6941052083334,248.40679285781727L454.4404229166667,210.40436645437563L455.57640312499996,230.6913411510842L458.5251177083333,240.7239054861878L458.74264583333337,242.0944713854364L459.37106041666664,216.89148553247963L460.33785208333336,220.7636004979057L463.50409479166666,236.73227356214608L463.76996249999996,257.1817474173648L464.20501875,238.40396432206035L465.46184791666667,264.00040070127164L465.6310364583333,248.2097183487245L467.78214791666664,227.19573828258683L467.95133645833334,208.67322904190848L469.01480729166667,218.0275826581887L469.353184375,238.02114085161259L472.15688020833335,233.73082878866364L473.1720114583333,225.5260931061847L474.283821875,239.58833222942695L474.8155572916667,216.9785475624459L477.23253645833336,199.86329999353205L479.0211010416666,241.09587738556522L479.79453437499996,218.39982896511043L480.1087416666667,211.24026172661354L481.5830989583333,265.6146654460047L481.9456458333333,228.1460615008005L483.855059375,213.34229835442136L484.9668697916666,206.60746410222993L484.99103958333336,271.9079530132668L485.08771875,238.78726176917553L486.0545104166667,241.6332172495978L486.3928875,222.6160260449563L486.7312645833333,248.6445794680289L487.0938114583333,204.82718279319153L487.8672447916666,218.43914408236742L488.205621875,205.67215846053193L491.46854375,246.8149796394365L492.14529791666666,249.3633775572692L492.3628260416667,216.56646226931895L493.52297604166665,222.11006842553616L494.4172583333333,220.60975765011142L495.23903125000004,236.6209638837193L498.13940625000004,230.11289004768645L498.8161604166666,233.99929915155684L500.60472500000003,213.94559581364905L501.76487499999996,217.7007882190602L502.56247812500004,231.39302618801594L503.2150625,246.9568233937025L504.4960614583333,235.2507721765765L505.68038125000004,253.4351115381079L508.3390583333333,238.32797837842787L509.4025291666667,234.5156842576606L510.39349062499997,232.27751654173647L512.0370364583333,238.268531725875L512.06120625,224.5526448158281L513.3905447916667,210.21095902792047L515.1307697916667,224.71950954890679L515.9283729166667,250.42211670162425L517.0401833333333,234.60399359464645L517.499409375,269.9578383804432L517.8861260416667,208.4528049454093L525.2337427083334,223.69444769408022L525.3304218750001,248.36954827021276L527.72323125,252.3171003641827L528.4966645833333,217.7937874304397L528.8350416666666,219.693286344409L528.9075510416667,237.0237442664802L529.4876260416667,263.5082632436284L530.4544177083334,219.84897520659226L533.5723208333334,247.48236373332995L534.6357916666666,236.00364669359158L534.7808104166667,241.58828925075278L534.8049802083334,221.37206180819442L538.092071875,232.7834741611566L538.3337697916667,239.54527519111122L541.2583145833333,222.98181130151664L542.152596875,255.35868347755502L545.343009375,247.18575412407517L547.010725,229.8645262739488L548.3642333333333,229.2375299813492L548.5817614583334,241.48531158321668L549.403534375,236.96237676111716L550.2978166666667,242.38980874153123L553.029003125,237.94196180201004L556.0260572916667,246.8475842449282L558.829753125,249.6326212505145L559.0231114583333,251.35405461436937L559.119790625,238.58547243954882L559.2164697916667,268.879017593073L560.9083552083333,252.80359999409745L562.5760708333333,220.1468071767262L563.9295791666667,254.3472422153822L565.6939739583333,203.97020803232277L566.2740489583333,250.52362254687716L567.2166708333333,235.91374080362067L567.530878125,250.15836115926504L567.74840625,260.6189763173461L568.5218395833333,254.61336764107858L570.7938,214.1873987524637L571.2288562499999,241.0827806618597L574.2500802083333,234.84202966626202L574.3950989583334,261.36356871575117L574.4676083333334,225.4348900169134L574.7576458333333,232.7184146270156L575.1201927083333,220.8754589914211L577.7547,238.77316719985436L579.857471875,247.05219248841917L582.7095072916667,231.9697809538671L582.8061864583333,253.14875479255403L585.1264864583334,247.21284563254034L586.7942020833334,254.22049087605308L587.7851635416666,244.7962880666767L589.1870114583334,219.0155246561127L589.8879354166667,233.65391983783672L590.2263125,260.7953455299139L592.11155625,258.53564929483196L592.184065625,253.21423841108168L593.2717062500001,227.41708538628052L594.9877614583334,241.12219556367825L595.88204375,230.23989084841952L600.4017947916666,220.87141771667768L600.885190625,243.2430415813412L601.7069635416666,247.38155638000796L602.0936802083334,246.24353840148876L602.3595479166667,257.27050578487774L603.8097354166666,264.60192698453153L603.9064145833333,232.9103502311877L604.220621875,297.9404479265213L604.58316875,263.6245870962739L611.761596875,272.1061750448176L612.99425625,239.35887763010606L613.7676895833333,240.55806354486515L613.9852177083334,245.75324695823448L614.44444375,261.1493562082095L614.8795,240.79552585525173L616.1604989583334,268.26594124681185L618.2149312500001,257.70262282873904L618.287440625,239.22481707164218L619.1817229166667,275.6529923395387L619.8584770833334,273.5433970311923L620.2935333333334,275.5648077332548L620.3418729166667,279.34130414256026L622.6138333333333,258.707702825112L624.5715864583333,239.2198777358447L627.133584375,238.36617091936725L627.2302635416667,245.69552158936858L627.64115,248.89424044106687L627.7619989583334,271.2476286771042L627.9070177083333,248.23985328631744L628.4145833333333,253.03160771727562L629.2846958333333,263.15851835533977L629.6714125,273.76274844365463L631.5324864583333,266.44836545788814L634.0461447916666,248.36159045142787L634.8679177083334,270.91611941744173L635.9313885416667,263.2337808609009L637.8408020833334,257.692868887846L638.5417260416667,261.405228770205L642.4814020833334,257.1955675791417L642.7472697916667,266.3435916682439L642.86811875,264.6512455040855L643.4240239583334,254.2455368010061L644.7533625,271.53608089845096L644.8017020833333,246.16258817591836L648.0404541666667,235.62608685876643L648.8380572916667,302.8163955813008L654.107071875,251.00251360397255L654.687146875,255.02223488209503L656.1131645833334,271.3066013529897L656.49988125,262.02471627454673L658.1192572916666,248.48098267934154L659.472765625,270.3486446158162L660.0045010416667,263.4971123188734L661.72055625,256.002717984042L661.7688958333333,260.80629688554575L662.6631781250001,272.11505587079694L669.55156875,261.23559501554286L670.8567375,252.6991255581379L671.4609822916667,229.78654463908504L674.844753125,239.57975075713227L678.470221875,252.171389958156L679.0261270833333,260.8676643909088L679.3161645833333,269.7037369944155L683.9567645833333,262.6590217862811L684.7301979166667,259.01261949911714L686.5671020833333,273.6262431634324L686.591271875,232.93364992631334L688.8390625,264.2846120787518L690.9901739583333,261.0130754432508L691.0385135416666,257.24284051518356L692.3436822916666,257.9647319258324L692.4161916666667,252.68987054005265L702.61584375,248.9994133689574L710.0601395833334,249.02947346812914L712.259590625,256.8867593072355L712.3562697916667,278.35997287184L712.8154958333333,260.79938680465733L715.5708520833333,263.46483201320683L717.9394916666666,269.59108022440756L718.27786875,290.79028538295205L719.2446604166666,272.97736910570944L720.9365458333333,264.9932321427124L721.2990927083333,280.3507746596422L722.0725260416667,269.82053482372845L722.2417145833333,275.69869366873587L723.5952229166667,291.9369596721871L724.07861875,262.4273968727461L724.1269583333334,274.95337783225943L724.876221875,280.0614493233817L726.3747489583334,268.51829640301213L727.8007666666667,274.22480085598573L729.6135010416666,264.1423192939588L731.1120281249999,242.2154352201947L734.7133270833334,275.0895338665162L735.8251375,280.25762577142035L736.3810427083333,268.0673450231552L740.7799447916667,259.54437142770206L742.0851135416667,273.2057510209935L742.3268114583334,267.15346811605355L742.3751510416666,260.055542790464L743.3902822916667,273.0692457407713L744.7679604166666,283.3762176201812L747.2574489583333,273.5805418342352L747.5474864583333,271.96864697283934L751.6080114583333,267.3014985131366L751.8255395833332,271.1575980564313L752.0188979166666,283.5657334487353L752.2122562500001,260.37899444678L752.9615197916667,281.7951811344496L755.620196875,279.6467197393732L756.27278125,298.72298340446184L756.5869885416668,280.77500872313976L756.6353281250001,274.59535082536087L758.375553125,293.10895429391945L759.4390239583332,285.0384288467467L762.5569270833334,280.5841458030045L763.451209375,263.29973845609595L763.5720583333333,271.8025555701128L764.8772270833333,308.3739965222776L766.0132072916666,278.67179962673356L767.4633947916667,268.2807592542044L768.961921875,284.8250894541187L768.9860916666667,295.41819356381893L771.3547312500001,261.8741912634245L772.7082395833334,292.3664074790265L773.7717104166666,276.70497107984767L774.1342572916667,277.35721286652347L774.8593510416666,293.32441410848077L775.9469916666667,282.3985035398177L776.4062177083333,294.1811394079455L776.8171041666666,245.8961633965373L780.8776291666667,276.8056537024677L782.303646875,298.8763772217291L784.1163812499999,283.2565509847232L784.1888906249999,271.9089508588825L784.4064187500001,267.5226460477071L786.0257947916667,286.872419196048L786.4125114583334,293.67216330553805L788.5636229166666,274.9281822304641L789.1678677083333,317.18444943960225L792.5758083333333,277.64935711664816L793.3734114583334,299.37742045149207L793.5667697916667,287.08051989919375L795.0411270833333,291.6808625949281L797.74814375,290.68820577647006L798.6907656249999,286.8330042942294L800.0684437499999,275.8041410041707L802.5095927083333,297.13720715205585L802.96881875,280.4938407747873L806.3767593750001,303.2618837564119L808.5278708333333,300.56415824219584L808.7212291666666,277.822732792369L810.0505677083333,309.28335817796847L811.742453125,289.90150429308414L812.467546875,272.3527177503066L812.7817541666667,284.38820769744257L816.7456000000001,272.0981174414711L816.7939395833333,287.7104099440787L818.2441270833334,280.6503029673227L818.92088125,284.4902374116438L821.0961625000001,273.2862023237561L821.1445020833334,285.379741939583L821.3862,302.88307661456724L824.649121875,298.5974045337311L824.8183104166666,273.8143620081246L828.0328927083333,292.65772850651825L829.2655520833333,284.15536042302847L830.304853125,308.0056168671165L831.5375125,294.05473731458187L832.190096875,294.85341294535573L833.6161145833333,309.3937199030604L835.4288489583332,287.0861327807818L836.7581875,291.7239196332438L837.1449041666667,284.03257552002157L837.990846875,269.2743889721377L838.135865625,269.4196752937777L840.7220333333333,303.94638090261395L840.8912218749999,299.4099502185626L841.3021083333333,285.965726777379L841.8580135416667,293.87622273394044L842.2689,299.88657117688234L842.8973145833334,299.2228791117668L845.0484260416666,310.47650712675284L845.3142937499999,278.85116237614835L845.9185385416667,284.4205628415304L847.2720468750001,299.35534311724564L847.562084375,275.0124004004257L847.8762916666667,286.12243843131836L850.7766666666666,284.6402385538178L851.8159677083333,290.52014362865265L852.0818354166666,306.3332276152713L852.130175,272.6168973770525L852.2268541666667,279.7693799116782L853.1936458333334,268.2422923057207L853.9912489583334,277.1973829450352L854.3779656249999,278.1279737661992L860.7829604166667,284.7472824422377L862.6198645833333,290.72722154004236L862.934071875,289.5313285158149L864.094221875,296.8401235661336L867.5021624999999,278.75454597441217L868.154746875,275.40517738088965L868.9765197916666,314.31100331246853L869.1215385416667,291.68103721791084L869.314896875,306.4050724995988L870.2575187499999,279.2866720951029L872.9645354166666,279.77439408589686L875.2123260416668,293.1121473998896L876.0099291666667,314.71725120874385L877.7018145833333,293.9525080312576L879.2003416666666,288.9565444950547L880.0221145833333,286.01521991991575L881.4481322916666,283.91587747527024L884.7835635416666,293.46393787169035L885.3152989583334,296.2223822916193L886.0645625,299.2764384751874L886.9346750000001,295.7902403016176L887.0313541666667,296.8985723730709L887.2247125,311.19213705616335L888.747409375,290.6815701031259L891.3577468750001,311.12735192956666L891.9136520833333,279.70564252297794L892.30036875,274.6080733569605L892.6387458333334,313.62308854503294L893.1463114583333,299.11069631842633L893.7022166666666,290.0206221134535L894.1372729166667,309.8375616329057L894.62066875,310.41042480085576L898.4636656250001,276.00298668923125L899.3096083333334,323.1185874236482L900.42141875,287.5342403006341L906.5363760416667,291.28284692498187L906.874753125,308.91400562333206L908.034903125,311.70902108507494L909.1708833333333,303.19819625999247L912.31295625,292.4981480464339L913.8839927083333,305.97515071609195L913.9081625,326.2663413105267L914.1981999999999,307.44851965989386L914.2223697916666,300.48126221767495L916.08344375,320.1323847419449L917.6303104166667,310.78094982409056L918.11370625,329.01091567639793L918.7421208333333,316.3511984582458L922.9234947916666,313.41531214171226L923.8902864583333,342.1847853210888L925.1954552083333,319.02684663821543L927.9508114583334,308.40662607390965L928.3133583333333,311.7144343975399L928.4342072916667,314.1090643059995L928.7484145833333,306.9001785479486L929.1109614583333,314.9346817683961L935.3951072916667,269.46782134473324L935.588465625,319.93685689355647L936.5794270833334,292.2481627735708L937.8604260416668,325.5156121615853L938.5130104166667,321.4362197156463L939.2139343749999,323.0515571444162L939.3347833333335,320.52109550152505L939.3831229166667,324.9492100439966L939.8665187500001,325.5776781588793L943.129440625,312.534663493612L944.7729864583333,312.930184549519L945.2080427083334,312.0768768712878L947.3833239583333,332.815613697416L949.2927374999999,301.58168636262417L949.4135864583333,310.1819181548698L951.4196791666667,345.63285331907014L953.8366583333333,328.12191007126654L954.1025260416667,326.4874389528164L954.6826010416667,329.171244520694L957.6796552083333,320.4097109846771L960.531690625,316.22836366295815L962.2235760416667,317.15586116271356L963.8187822916666,357.8497017068523L964.592215625,320.0478422721582L965.1239510416666,326.44690147468026L965.2931395833333,337.0470403959709L965.5106677083332,353.48765701720754L965.5590072916666,334.9167522641697L965.6073468750001,337.0841103605926L965.9940635416667,329.019010698955L967.2750625000001,322.58152196715986L967.9034770833333,300.7669703635786L968.6044010416667,327.1906706504524L969.5470229166666,314.3979156655925L970.1754375,337.0563078871263L970.973040625,336.6102459507861L972.0365114583334,333.2115463646395L975.903678125,308.4872769457954L978.00645,332.5435136710959L978.3206572916666,331.99155536879385L979.5049770833333,317.2602108679712L980.1092218749999,337.0925795752555L980.7859760416667,348.7640055495181L981.0035041666666,337.9341500944325L982.139484375,334.01595960770334L983.8072,340.97906351754705L985.2573875,315.1419343027685L987.3118197916666,324.0163241779166L987.9160645833334,318.4234244482858L988.8586864583333,347.1455498531993L989.7046291666667,334.0612119063735L990.9614583333333,322.23097880237873L991.1548166666666,349.411856815485L994.39356875,312.46177087138807L995.4570395833333,322.7572176339371L997.2939437499999,330.0773132858532L997.511471875,326.8818249593356L1003.0705239583333,335.00020957684944L1003.7231083333334,341.3581949592169L1005.3666541666668,329.2759684180575L1005.7533708333333,329.7915926668793L1006.2125968749999,345.65759989033853L1007.5419354166667,339.8231342102268L1007.73529375,352.03799937984775L1008.60540625,332.77683492217744L1011.8441583333333,341.84383394728815L1012.37589375,332.18695848648036L1012.4242333333334,311.76198174112614L1012.4967427083334,345.4911592416465L1012.7867802083333,335.864630760625L1013.1251572916667,328.4147902325328L1013.608553125,335.88997603926276L1013.7294020833333,314.75901104775926L1013.8019114583333,333.84537789970636L1015.0345708333333,326.16658169510106L1016.7022864583332,338.2864270159709L1017.0406635416667,346.8341097634818L1017.9349458333332,329.1234102964934L1019.2884541666666,351.95707410041774L1019.5301520833333,325.389235014362L1020.0618875,345.7918475448553L1024.0015635416667,324.72494424187715L1027.16780625,331.8481025884726L1027.820390625,332.57025593359555L1027.8687302083333,335.0329389130431L1029.0047104166667,337.24216910611307L1029.8989927083335,344.92135197589437L1030.7691052083333,338.9773103741131L1031.4216895833333,329.93691640772994L1033.2344239583333,346.6043183912656L1034.5395927083334,358.5694602224976L1034.6604416666667,336.0913038652923L1037.7783447916668,330.400053977168L1038.841815625,335.100667684206L1043.554925,338.22737950166425L1048.63058125,349.79540372400413L1048.6547510416667,358.1547555846295L1048.993128125,335.72136507635673L1049.1623166666668,340.51324423801685L1051.0717302083333,333.5719682010157L1051.8209937499998,317.0186823367008L1052.908634375,333.9388386146831L1058.7577239583334,364.8391612140196L1059.5794968750001,337.7152601855674L1060.5704583333334,324.64865894455994L1061.0055145833335,334.96952582416793L1061.2713822916667,326.7859943610217L1064.0750781250001,343.2401941557016L1064.5584739583333,344.46025998996834L1065.4044166666667,325.289450452796L1068.4014708333334,331.2119011700686L1069.1990739583332,337.309710781223L1069.22324375,323.9362470672599L1073.1145802083333,339.2344052969877L1074.371409375,342.61913504451513L1074.9998239583333,348.99667820094953L1076.7883885416668,330.5394904288862L1077.6826708333333,350.8913874559637L1077.996878125,363.65793652034233L1080.2688385416666,338.4136149127569L1080.679725,325.6962721103004L1080.9214229166666,337.652533115553L1080.9939322916666,316.76078913733363L1083.072534375,330.36302143175686L1085.392834375,342.72997074627455L1086.407965625,341.3843385143472L1087.5197760416668,345.29126581868957L1087.713134375,349.5717116831137L1088.3657187499998,344.84058884637693L1088.8491145833334,352.2448652490441L1090.2993020833333,342.2260337642261L1091.84616875,356.1312119875636L1091.8703385416668,333.2311914501978L1092.3295645833332,334.4313502644322L1093.3205260416667,353.1111948125597L1093.3446958333334,346.1041732225567L1093.658903125,337.7359031167414L1094.529015625,344.03812140226364L1095.5199770833333,333.9480562135577L1095.6649958333333,343.21709402969907L1096.5351083333333,361.9503607374749L1097.6952583333334,329.7705755435995L1100.25725625,376.43473844842185L1100.6923125,317.86869712440034L1101.9733114583335,342.30561195207497L1102.5533864583333,363.1708506561283L1106.8072697916666,349.4640940334648L1107.000628125,326.9382406558309L1108.160778125,350.5190663106207L1108.9825510416667,373.04757645220633L1109.901003125,351.23134098414863L1110.40856875,341.6057729295322L1112.1246239583334,331.46712513241386L1112.8497177083334,347.21710785691226L1113.5023020833335,355.0793455048863L1113.5748114583334,304.66063879430294L1113.671490625,348.58670085668564L1115.0008291666668,335.6745162247015L1115.0249989583333,365.291297535545L1118.167071875,345.2447662129998L1118.8438260416667,347.86394880419334L1120.0764854166666,336.2136397377721L1120.8499187500001,344.91200964631776L1123.242728125,335.1851727347821L1124.4753875,351.00120036596695L1124.6204062499999,349.5954105164856L1124.7654249999998,340.17603478527496L1124.8862739583333,336.5292707790754L1125.49051875,347.21800591796637L1125.6597072916666,344.5190330967307L1126.0222541666667,333.7037212414933L1126.07059375,347.6257755288056L1126.5539895833333,330.9372940566391L1127.6174604166665,328.81165838002096L1127.9558375000001,342.5550359367792L1130.4694958333332,343.3528010334287L1133.8532666666667,321.1456470723663L1134.6508697916665,347.46507249240364L1135.0134166666667,358.37062701050723L1135.206775,331.46863437390755L1136.2702458333333,342.8326365870557L1137.2128677083333,349.5038956004594L1137.2370375,318.77444158973435L1138.1554895833333,338.28254789114L1138.83224375,344.6767675424261L1139.0739416666665,364.39647947970246L1139.1464510416665,364.3181860180838L1144.8021822916667,351.8218535464257L1144.8746916666666,324.4751086458564L1146.37321875,345.84661679608485L1147.1224822916668,335.9858565298575L1148.911046875,350.94070597551763L1152.8748927083334,352.0624590705016L1153.406628125,346.53481844413494L1154.5426083333334,336.4181481967015L1156.4278520833334,341.01410037172695L1156.6453802083333,336.5101745086057L1156.9837572916665,351.0819634954844L1157.4188135416666,345.93012400104533L1157.7330208333333,319.2481687957687L1158.9656802083334,361.13904988659283L1159.497415625,342.3543816565403L1163.48543125,343.8104753981211L1164.64558125,357.99627275472244L1164.8147697916668,353.82776022223493L1165.733221875,366.5255327775542L1165.80573125,355.71346392056773L1167.3042583333333,345.36630380898714L1169.2378416666668,359.5281653438828L1172.0415375,345.51344861808633L1172.331575,354.96159972223853L1173.5400645833333,331.4410314695644L1174.4101770833333,341.8329699031476L1174.9177427083334,348.4247130940535L1178.494871875,343.4923622158489L1178.9299281249998,349.89582441215003L1181.4194166666666,351.8602830756988L1182.1928500000001,350.7935362202781L1187.9452604166668,323.7731990936611L1188.6703541666666,331.0832913432803L1190.4830885416666,364.5248398450869L1190.5555979166666,337.8483104253454L1191.1598427083334,358.6842374144388L1192.7550489583334,349.1809678130916L1193.0934260416666,344.51663826725314L1194.301915625,359.94762222149546L1194.8819906249998,354.8535704612732L1195.5104052083334,366.8351143798126L1195.7279333333333,355.17132192450975L1195.9454614583333,343.3580397229109L1196.0179708333333,350.98665676611876L1196.9364229166667,345.8116298341858L1199.4017416666666,340.21876752376556L1200.3443635416666,356.95099205310856L1201.5045135416667,346.30979178473353L1201.8187208333334,349.7449501550623L1201.9637395833333,363.5811273540769L1201.987909375,350.8878326309579L1202.5196447916667,341.223049243646L1202.7130031250001,348.7703293961074L1204.018171875,354.5620623377285L1207.28109375,375.52842022185877L1207.9095083333332,360.61049106397803L1208.8279604166667,347.68140542187865L1209.5772239583332,351.7461420103375L1210.0606197916668,353.9029853085854L1210.6648645833334,359.623758953863L1211.9700333333333,349.3321164777237L1213.3477114583334,352.48121745618323L1214.459521875,313.6564914270171L1217.794953125,363.3050109991538L1218.810084375,343.5506363998034L1221.2995729166666,337.0405419263989L1222.2905343749999,353.42423145526226L1222.5564020833333,373.81525650354365L1223.0397979166667,359.7740095574409L1223.1364770833334,360.6302234610277L1223.4265145833333,349.9251860193908L1226.7861156249999,348.6260783392936L1227.8979260416668,360.4642318428627L1231.7650927083334,352.9135590153081L1232.0551302083334,347.7866032959095L1232.6835447916667,364.67369346480285L1239.2818979166668,336.50857795562064L1243.318253125,373.84188650841156L1244.5509124999999,350.87743009041463L1244.84095,364.39250057031L1247.4029479166666,345.4327603269901L1250.1099645833333,341.14171235289956L1253.7837729166667,341.47300957036873L1254.1704895833334,337.1189975379301L1254.629715625,337.453849580405L1254.6538854166665,351.3263608328998L1257.1192041666666,367.16244516095946L1257.240053125,361.4932601340115L1257.6026,365.29987900783976L1257.675109375,368.6302760615945L1257.9409770833333,354.99471572360824L1258.3518635416667,342.38631271624143L1258.4485427083334,333.65702206668044L1258.835259375,346.63256989525894L1259.19780625,363.27384079673465L1259.5361833333334,350.730958827106L1260.5029749999999,345.89604757327055L1260.6721635416666,342.0839405485562L1261.1313895833334,355.750696035102L1263.9834250000001,361.0184103516596L1264.1767833333333,355.5121610406786L1264.2251229166668,360.05386783342277L1264.6601791666667,357.15725921493555L1265.2402541666665,351.9131065279778L1267.9231010416665,354.36510008626755L1270.0258729166667,341.45826640139734L1271.596909375,352.81761615936244L1271.9352864583334,329.0921902017934L1273.9172093749999,351.9168484490365L1275.6090947916666,339.7279147923525L1278.7753375,366.024152774896L1279.6696197916667,344.8735177516937L1280.9747885416666,345.7142401020974L1283.923503125,333.2692343142948L1285.5670489583333,342.1586292928883L1285.7845770833335,360.99322722293437L1285.953765625,347.14945392417053L1286.968896875,347.52394538372755L1287.0897458333332,348.52911269159193L1289.4100458333332,326.62347025637115L1290.159309375,352.76636431392814L1290.304328125,346.4728397583323L1291.24695,342.83631614276345L1293.3255520833334,353.51028316654265L1295.7908708333332,349.0011435600796L1296.3467760416668,351.97287748035575L1296.4434552083333,353.60606387257576L1297.120209375,341.78444966008624L1297.7727937500001,360.81905327072104L1297.8211333333334,355.74737819842994L1298.3286989583332,347.4368334614805L1298.8846041666668,374.6148800876524L1301.3740927083334,360.9302382184459L1307.416540625,349.97272088990684L1307.706578125,352.71932836622L1308.1658041666667,388.0080387794546L1309.1567656250002,347.97293849156375L1310.026878125,367.2446925858302L1311.6462541666667,346.6346030057009L1312.7580645833334,337.0240650006703L1313.3864791666665,356.15821618453737L1313.8940447916666,360.2600726298988L1316.842759375,367.4732615971672L1317.9062302083335,350.3363857245339L1321.8700760416666,346.89005148330966L1322.13594375,350.03472452184985L1323.3444333333332,380.0020365244044L1325.7855822916667,344.263721822894L1326.05145,350.701709477497L1328.3959197916668,342.3965156876615L1328.734296875,347.04680055645963L1329.0726739583333,349.79484243584534L1329.5077302083332,351.69276974297L1329.5802395833332,342.17489417642355L1330.1603145833333,358.36301843768786L1330.7645593749999,346.2701024753707L1333.4715760416666,350.3494949213096L1335.3084802083333,358.72050910256803L1335.6468572916667,336.5244312278394L1337.1212145833333,365.0573401578835L1339.53819375,362.9853636292475L1339.97325,333.3505712050412L1341.5442864583333,366.1581384949386L1343.7920770833332,363.7324631147619L1343.9129260416667,339.7088434680232L1344.2754729166668,361.0382425332708L1344.7830385416667,338.79557774136106" style="fill: none;" fill="none"></path></g></g></g></g></g></g><g transform="translate(62, 375)" clip-path="url(#clip_1)"><clipPath id="clip_1"><rect width="1450" height="25"></rect></clipPath><g><g><line x1="0" y1="0" x2="0" y2="5" style="visibility: inherit;" fill="rgb(0, 0, 0)" stroke="rgb(204, 204, 204)" stroke-width="1px"></line><line x1="120.84895833333333" y1="0" x2="120.84895833333333" y2="5" style="visibility: inherit;" fill="rgb(0, 0, 0)" stroke="rgb(204, 204, 204)" stroke-width="1px"></line><line x1="241.69791666666666" y1="0" x2="241.69791666666666" y2="5" style="visibility: inherit;" fill="rgb(0, 0, 0)" stroke="rgb(204, 204, 204)" stroke-width="1px"></line><line x1="362.546875" y1="0" x2="362.546875" y2="5" style="visibility: inherit;" fill="rgb(0, 0, 0)" stroke="rgb(204, 204, 204)" stroke-width="1px"></line><line x1="483.3958333333333" y1="0" x2="483.3958333333333" y2="5" style="visibility: inherit;" fill="rgb(0, 0, 0)" stroke="rgb(204, 204, 204)" stroke-width="1px"></line><line x1="604.2447916666667" y1="0" x2="604.2447916666667" y2="5" style="visibility: inherit;" fill="rgb(0, 0, 0)" stroke="rgb(204, 204, 204)" stroke-width="1px"></line><line x1="725.09375" y1="0" x2="725.09375" y2="5" style="visibility: inherit;" fill="rgb(0, 0, 0)" stroke="rgb(204, 204, 204)" stroke-width="1px"></line><line x1="845.9427083333334" y1="0" x2="845.9427083333334" y2="5" style="visibility: inherit;" fill="rgb(0, 0, 0)" stroke="rgb(204, 204, 204)" stroke-width="1px"></line><line x1="966.7916666666666" y1="0" x2="966.7916666666666" y2="5" style="visibility: inherit;" fill="rgb(0, 0, 0)" stroke="rgb(204, 204, 204)" stroke-width="1px"></line><line x1="1087.640625" y1="0" x2="1087.640625" y2="5" style="visibility: inherit;" fill="rgb(0, 0, 0)" stroke="rgb(204, 204, 204)" stroke-width="1px"></line><line x1="1208.4895833333335" y1="0" x2="1208.4895833333335" y2="5" style="visibility: inherit;" fill="rgb(0, 0, 0)" stroke="rgb(204, 204, 204)" stroke-width="1px"></line><line x1="1329.3385416666665" y1="0" x2="1329.3385416666665" y2="5" style="visibility: inherit;" fill="rgb(0, 0, 0)" stroke="rgb(204, 204, 204)" stroke-width="1px"></line><line x1="1450.1875" y1="0" x2="1450.1875" y2="5" style="visibility: inherit;" fill="rgb(0, 0, 0)" stroke="rgb(204, 204, 204)" stroke-width="1px"></line></g><g transform="translate(0, 8)"><text x="0" y="0" dx="0em" dy="0.95em" style="text-anchor: middle; visibility: hidden; font-family: Roboto, sans-serif; font-size: 12px; font-weight: 200;" fill="rgb(255, 255, 255)" stroke="none" stroke-width="1px">-5k</text><text x="120.84895833333333" y="0" dx="0em" dy="0.95em" style="text-anchor: middle; visibility: inherit; font-family: Roboto, sans-serif; font-size: 12px; font-weight: 200;" fill="rgb(255, 255, 255)" stroke="none" stroke-width="1px">0</text><text x="241.69791666666666" y="0" dx="0em" dy="0.95em" style="text-anchor: middle; visibility: inherit; font-family: Roboto, sans-serif; font-size: 12px; font-weight: 200;" fill="rgb(255, 255, 255)" stroke="none" stroke-width="1px">5k</text><text x="362.546875" y="0" dx="0em" dy="0.95em" style="text-anchor: middle; visibility: inherit; font-family: Roboto, sans-serif; font-size: 12px; font-weight: 200;" fill="rgb(255, 255, 255)" stroke="none" stroke-width="1px">10k</text><text x="483.3958333333333" y="0" dx="0em" dy="0.95em" style="text-anchor: middle; visibility: inherit; font-family: Roboto, sans-serif; font-size: 12px; font-weight: 200;" fill="rgb(255, 255, 255)" stroke="none" stroke-width="1px">15k</text><text x="604.2447916666667" y="0" dx="0em" dy="0.95em" style="text-anchor: middle; visibility: inherit; font-family: Roboto, sans-serif; font-size: 12px; font-weight: 200;" fill="rgb(255, 255, 255)" stroke="none" stroke-width="1px">20k</text><text x="725.09375" y="0" dx="0em" dy="0.95em" style="text-anchor: middle; visibility: inherit; font-family: Roboto, sans-serif; font-size: 12px; font-weight: 200;" fill="rgb(255, 255, 255)" stroke="none" stroke-width="1px">25k</text><text x="845.9427083333334" y="0" dx="0em" dy="0.95em" style="text-anchor: middle; visibility: inherit; font-family: Roboto, sans-serif; font-size: 12px; font-weight: 200;" fill="rgb(255, 255, 255)" stroke="none" stroke-width="1px">30k</text><text x="966.7916666666666" y="0" dx="0em" dy="0.95em" style="text-anchor: middle; visibility: inherit; font-family: Roboto, sans-serif; font-size: 12px; font-weight: 200;" fill="rgb(255, 255, 255)" stroke="none" stroke-width="1px">35k</text><text x="1087.640625" y="0" dx="0em" dy="0.95em" style="text-anchor: middle; visibility: inherit; font-family: Roboto, sans-serif; font-size: 12px; font-weight: 200;" fill="rgb(255, 255, 255)" stroke="none" stroke-width="1px">40k</text><text x="1208.4895833333335" y="0" dx="0em" dy="0.95em" style="text-anchor: middle; visibility: inherit; font-family: Roboto, sans-serif; font-size: 12px; font-weight: 200;" fill="rgb(255, 255, 255)" stroke="none" stroke-width="1px">45k</text><text x="1329.3385416666665" y="0" dx="0em" dy="0.95em" style="text-anchor: middle; visibility: inherit; font-family: Roboto, sans-serif; font-size: 12px; font-weight: 200;" fill="rgb(255, 255, 255)" stroke="none" stroke-width="1px">50k</text><text x="1450.1875" y="0" dx="0em" dy="0.95em" style="text-anchor: middle; visibility: hidden; font-family: Roboto, sans-serif; font-size: 12px; font-weight: 200;" fill="rgb(255, 255, 255)" stroke="none" stroke-width="1px">55k</text></g><line x1="0" y1="0" x2="1450.1875" y2="0" fill="rgb(0, 0, 0)" stroke="rgb(204, 204, 204)" stroke-width="1px"></line></g></g></g></g></svg>